<svg width="99" height="32" viewBox="0 0 99 32" fill="none" xmlns="http://www.w3.org/2000/svg">
<path d="M12.76 17.642C12.76 18.0967 12.7307 18.5073 12.672 18.874H3.41C3.48333 19.842 3.84267 20.6193 4.488 21.206C5.13333 21.7927 5.92533 22.086 6.864 22.086C8.21333 22.086 9.16667 21.5213 9.724 20.392H12.43C12.0633 21.5067 11.396 22.4233 10.428 23.142C9.47467 23.846 8.28667 24.198 6.864 24.198C5.70533 24.198 4.664 23.9413 3.74 23.428C2.83067 22.9 2.112 22.1667 1.584 21.228C1.07067 20.2747 0.814 19.1747 0.814 17.928C0.814 16.6813 1.06333 15.5887 1.562 14.65C2.07533 13.6967 2.78667 12.9633 3.696 12.45C4.62 11.9367 5.676 11.68 6.864 11.68C8.008 11.68 9.02733 11.9293 9.922 12.428C10.8167 12.9267 11.5133 13.6307 12.012 14.54C12.5107 15.4347 12.76 16.4687 12.76 17.642ZM10.142 16.85C10.1273 15.926 9.79733 15.1853 9.152 14.628C8.50667 14.0707 7.70733 13.792 6.754 13.792C5.88867 13.792 5.148 14.0707 4.532 14.628C3.916 15.1707 3.54933 15.9113 3.432 16.85H10.142ZM14.3921 17.884C14.3921 16.6667 14.6415 15.5887 15.1401 14.65C15.6535 13.7113 16.3428 12.9853 17.2081 12.472C18.0881 11.944 19.0635 11.68 20.1341 11.68C20.9261 11.68 21.7035 11.856 22.4661 12.208C23.2435 12.5453 23.8595 13 24.3141 13.572V7.72H26.8441V24H24.3141V22.174C23.9035 22.7607 23.3315 23.2447 22.5981 23.626C21.8795 24.0073 21.0508 24.198 20.1121 24.198C19.0561 24.198 18.0881 23.934 17.2081 23.406C16.3428 22.8633 15.6535 22.1153 15.1401 21.162C14.6415 20.194 14.3921 19.1013 14.3921 17.884ZM24.3141 17.928C24.3141 17.092 24.1381 16.366 23.7861 15.75C23.4488 15.134 23.0015 14.6647 22.4441 14.342C21.8868 14.0193 21.2855 13.858 20.6401 13.858C19.9948 13.858 19.3935 14.0193 18.8361 14.342C18.2788 14.65 17.8241 15.112 17.4721 15.728C17.1348 16.3293 16.9661 17.048 16.9661 17.884C16.9661 18.72 17.1348 19.4533 17.4721 20.084C17.8241 20.7147 18.2788 21.1987 18.8361 21.536C19.4081 21.8587 20.0095 22.02 20.6401 22.02C21.2855 22.02 21.8868 21.8587 22.4441 21.536C23.0015 21.2133 23.4488 20.744 23.7861 20.128C24.1381 19.4973 24.3141 18.764 24.3141 17.928ZM41.1163 11.878V24H38.6083V22.57C38.2123 23.0687 37.6916 23.4647 37.0463 23.758C36.4156 24.0367 35.7409 24.176 35.0223 24.176C34.0689 24.176 33.2109 23.978 32.4483 23.582C31.7003 23.186 31.1063 22.5993 30.6663 21.822C30.2409 21.0447 30.0283 20.106 30.0283 19.006V11.878H32.5143V18.632C32.5143 19.7173 32.7856 20.5533 33.3283 21.14C33.8709 21.712 34.6116 21.998 35.5503 21.998C36.4889 21.998 37.2296 21.712 37.7723 21.14C38.3296 20.5533 38.6083 19.7173 38.6083 18.632V11.878H41.1163Z" fill="#5ECC5A"/>
<path d="M43.5894 16.322C43.5894 14.826 43.9341 13.484 44.6234 12.296C45.3274 11.108 46.2734 10.184 47.4614 9.524C48.6641 8.84933 49.9767 8.512 51.3994 8.512C53.0274 8.512 54.4721 8.91533 55.7334 9.722C57.0094 10.514 57.9334 11.6433 58.5054 13.11H55.4914C55.0954 12.3033 54.5454 11.702 53.8414 11.306C53.1374 10.91 52.3234 10.712 51.3994 10.712C50.3874 10.712 49.4854 10.9393 48.6934 11.394C47.9014 11.8487 47.2781 12.5013 46.8234 13.352C46.3834 14.2027 46.1634 15.1927 46.1634 16.322C46.1634 17.4513 46.3834 18.4413 46.8234 19.292C47.2781 20.1427 47.9014 20.8027 48.6934 21.272C49.4854 21.7267 50.3874 21.954 51.3994 21.954C52.3234 21.954 53.1374 21.756 53.8414 21.36C54.5454 20.964 55.0954 20.3627 55.4914 19.556H58.5054C57.9334 21.0227 57.0094 22.152 55.7334 22.944C54.4721 23.736 53.0274 24.132 51.3994 24.132C49.9621 24.132 48.6494 23.802 47.4614 23.142C46.2734 22.4673 45.3274 21.536 44.6234 20.348C43.9341 19.16 43.5894 17.818 43.5894 16.322ZM60.605 17.884C60.605 16.6667 60.8543 15.5887 61.353 14.65C61.8663 13.7113 62.5557 12.9853 63.421 12.472C64.301 11.944 65.269 11.68 66.325 11.68C67.2783 11.68 68.107 11.8707 68.811 12.252C69.5297 12.6187 70.1017 13.0807 70.527 13.638V11.878H73.057V24H70.527V22.196C70.1017 22.768 69.5223 23.2447 68.789 23.626C68.0557 24.0073 67.2197 24.198 66.281 24.198C65.2397 24.198 64.2863 23.934 63.421 23.406C62.5557 22.8633 61.8663 22.1153 61.353 21.162C60.8543 20.194 60.605 19.1013 60.605 17.884ZM70.527 17.928C70.527 17.092 70.351 16.366 69.999 15.75C69.6617 15.134 69.2143 14.6647 68.657 14.342C68.0997 14.0193 67.4983 13.858 66.853 13.858C66.2077 13.858 65.6063 14.0193 65.049 14.342C64.4917 14.65 64.037 15.112 63.685 15.728C63.3477 16.3293 63.179 17.048 63.179 17.884C63.179 18.72 63.3477 19.4533 63.685 20.084C64.037 20.7147 64.4917 21.1987 65.049 21.536C65.621 21.8587 66.2223 22.02 66.853 22.02C67.4983 22.02 68.0997 21.8587 68.657 21.536C69.2143 21.2133 69.6617 20.744 69.999 20.128C70.351 19.4973 70.527 18.764 70.527 17.928ZM78.8592 13.638C79.2258 13.022 79.7098 12.5453 80.3112 12.208C80.9272 11.856 81.6532 11.68 82.4892 11.68V14.276H81.8512C80.8685 14.276 80.1205 14.5253 79.6072 15.024C79.1085 15.5227 78.8592 16.388 78.8592 17.62V24H76.3512V11.878H78.8592V13.638ZM95.9045 17.642C95.9045 18.0967 95.8752 18.5073 95.8165 18.874H86.5545C86.6279 19.842 86.9872 20.6193 87.6325 21.206C88.2779 21.7927 89.0699 22.086 90.0085 22.086C91.3579 22.086 92.3112 21.5213 92.8685 20.392H95.5745C95.2079 21.5067 94.5405 22.4233 93.5725 23.142C92.6192 23.846 91.4312 24.198 90.0085 24.198C88.8499 24.198 87.8085 23.9413 86.8845 23.428C85.9752 22.9 85.2565 22.1667 84.7285 21.228C84.2152 20.2747 83.9585 19.1747 83.9585 17.928C83.9585 16.6813 84.2079 15.5887 84.7065 14.65C85.2199 13.6967 85.9312 12.9633 86.8405 12.45C87.7645 11.9367 88.8205 11.68 90.0085 11.68C91.1525 11.68 92.1719 11.9293 93.0665 12.428C93.9612 12.9267 94.6579 13.6307 95.1565 14.54C95.6552 15.4347 95.9045 16.4687 95.9045 17.642ZM93.2865 16.85C93.2719 15.926 92.9419 15.1853 92.2965 14.628C91.6512 14.0707 90.8519 13.792 89.8985 13.792C89.0332 13.792 88.2925 14.0707 87.6765 14.628C87.0605 15.1707 86.6939 15.9113 86.5765 16.85H93.2865Z" fill="#33A8FF"/>
<line x1="61" y1="9.3125" x2="95" y2="9.3125" stroke="#FFADE4" stroke-width="2"/>
<line x1="30" y1="9.3125" x2="41" y2="9.3125" stroke="#FFADE4" stroke-width="2"/>
<line x1="1" y1="9.3125" x2="21" y2="9.3125" stroke="#FFADE4" stroke-width="2"/>
</svg>
