<svg width="71" height="27" viewBox="0 0 71 27" fill="none" xmlns="http://www.w3.org/2000/svg">
<path d="M9.28 13.376C9.28 13.7067 9.25867 14.0053 9.216 14.272H2.48C2.53333 14.976 2.79467 15.5413 3.264 15.968C3.73333 16.3947 4.30933 16.608 4.992 16.608C5.97333 16.608 6.66667 16.1973 7.072 15.376H9.04C8.77333 16.1867 8.288 16.8533 7.584 17.376C6.89067 17.888 6.02667 18.144 4.992 18.144C4.14933 18.144 3.392 17.9573 2.72 17.584C2.05867 17.2 1.536 16.6667 1.152 15.984C0.778667 15.2907 0.592 14.4907 0.592 13.584C0.592 12.6773 0.773333 11.8827 1.136 11.2C1.50933 10.5067 2.02667 9.97333 2.688 9.6C3.36 9.22667 4.128 9.04 4.992 9.04C5.824 9.04 6.56533 9.22133 7.216 9.584C7.86667 9.94667 8.37333 10.4587 8.736 11.12C9.09867 11.7707 9.28 12.5227 9.28 13.376ZM7.376 12.8C7.36533 12.128 7.12533 11.5893 6.656 11.184C6.18667 10.7787 5.60533 10.576 4.912 10.576C4.28267 10.576 3.744 10.7787 3.296 11.184C2.848 11.5787 2.58133 12.1173 2.496 12.8H7.376ZM10.467 13.552C10.467 12.6667 10.6483 11.8827 11.011 11.2C11.3843 10.5173 11.8857 9.98933 12.515 9.616C13.155 9.232 13.8643 9.04 14.643 9.04C15.219 9.04 15.7843 9.168 16.339 9.424C16.9043 9.66933 17.3523 10 17.683 10.416V6.16H19.523V18H17.683V16.672C17.3843 17.0987 16.9683 17.4507 16.435 17.728C15.9123 18.0053 15.3097 18.144 14.627 18.144C13.859 18.144 13.155 17.952 12.515 17.568C11.8857 17.1733 11.3843 16.6293 11.011 15.936C10.6483 15.232 10.467 14.4373 10.467 13.552ZM17.683 13.584C17.683 12.976 17.555 12.448 17.299 12C17.0537 11.552 16.7283 11.2107 16.323 10.976C15.9177 10.7413 15.4803 10.624 15.011 10.624C14.5417 10.624 14.1043 10.7413 13.699 10.976C13.2937 11.2 12.963 11.536 12.707 11.984C12.4617 12.4213 12.339 12.944 12.339 13.552C12.339 14.16 12.4617 14.6933 12.707 15.152C12.963 15.6107 13.2937 15.9627 13.699 16.208C14.115 16.4427 14.5523 16.56 15.011 16.56C15.4803 16.56 15.9177 16.4427 16.323 16.208C16.7283 15.9733 17.0537 15.632 17.299 15.184C17.555 14.7253 17.683 14.192 17.683 13.584ZM29.9028 9.184V18H28.0788V16.96C27.7908 17.3227 27.4121 17.6107 26.9428 17.824C26.4841 18.0267 25.9934 18.128 25.4708 18.128C24.7774 18.128 24.1534 17.984 23.5988 17.696C23.0548 17.408 22.6228 16.9813 22.3028 16.416C21.9934 15.8507 21.8388 15.168 21.8388 14.368V9.184H23.6468V14.096C23.6468 14.8853 23.8441 15.4933 24.2388 15.92C24.6334 16.336 25.1721 16.544 25.8548 16.544C26.5374 16.544 27.0761 16.336 27.4708 15.92C27.8761 15.4933 28.0788 14.8853 28.0788 14.096V9.184H29.9028Z" fill="#5ECC5A"/>
<path d="M31.7014 12.416C31.7014 11.328 31.952 10.352 32.4534 9.488C32.9654 8.624 33.6534 7.952 34.5174 7.472C35.392 6.98133 36.3467 6.736 37.3814 6.736C38.5654 6.736 39.616 7.02933 40.5334 7.616C41.4614 8.192 42.1334 9.01333 42.5494 10.08H40.3574C40.0694 9.49333 39.6694 9.056 39.1574 8.768C38.6454 8.48 38.0534 8.336 37.3814 8.336C36.6454 8.336 35.9894 8.50133 35.4134 8.832C34.8374 9.16267 34.384 9.63733 34.0534 10.256C33.7334 10.8747 33.5734 11.5947 33.5734 12.416C33.5734 13.2373 33.7334 13.9573 34.0534 14.576C34.384 15.1947 34.8374 15.6747 35.4134 16.016C35.9894 16.3467 36.6454 16.512 37.3814 16.512C38.0534 16.512 38.6454 16.368 39.1574 16.08C39.6694 15.792 40.0694 15.3547 40.3574 14.768H42.5494C42.1334 15.8347 41.4614 16.656 40.5334 17.232C39.616 17.808 38.5654 18.096 37.3814 18.096C36.336 18.096 35.3814 17.856 34.5174 17.376C33.6534 16.8853 32.9654 16.208 32.4534 15.344C31.952 14.48 31.7014 13.504 31.7014 12.416ZM44.0764 13.552C44.0764 12.6667 44.2577 11.8827 44.6204 11.2C44.9937 10.5173 45.495 9.98933 46.1244 9.616C46.7644 9.232 47.4684 9.04 48.2364 9.04C48.9297 9.04 49.5324 9.17867 50.0444 9.456C50.567 9.72267 50.983 10.0587 51.2924 10.464V9.184H53.1324V18H51.2924V16.688C50.983 17.104 50.5617 17.4507 50.0284 17.728C49.495 18.0053 48.887 18.144 48.2044 18.144C47.447 18.144 46.7537 17.952 46.1244 17.568C45.495 17.1733 44.9937 16.6293 44.6204 15.936C44.2577 15.232 44.0764 14.4373 44.0764 13.552ZM51.2924 13.584C51.2924 12.976 51.1644 12.448 50.9084 12C50.663 11.552 50.3377 11.2107 49.9324 10.976C49.527 10.7413 49.0897 10.624 48.6204 10.624C48.151 10.624 47.7137 10.7413 47.3084 10.976C46.903 11.2 46.5724 11.536 46.3164 11.984C46.071 12.4213 45.9484 12.944 45.9484 13.552C45.9484 14.16 46.071 14.6933 46.3164 15.152C46.5724 15.6107 46.903 15.9627 47.3084 16.208C47.7244 16.4427 48.1617 16.56 48.6204 16.56C49.0897 16.56 49.527 16.4427 49.9324 16.208C50.3377 15.9733 50.663 15.632 50.9084 15.184C51.1644 14.7253 51.2924 14.192 51.2924 13.584ZM57.3521 10.464C57.6188 10.016 57.9708 9.66933 58.4081 9.424C58.8561 9.168 59.3841 9.04 59.9921 9.04V10.928H59.5281C58.8135 10.928 58.2695 11.1093 57.8961 11.472C57.5335 11.8347 57.3521 12.464 57.3521 13.36V18H55.5281V9.184H57.3521V10.464ZM69.7488 13.376C69.7488 13.7067 69.7274 14.0053 69.6848 14.272H62.9488C63.0021 14.976 63.2634 15.5413 63.7328 15.968C64.2021 16.3947 64.7781 16.608 65.4608 16.608C66.4421 16.608 67.1354 16.1973 67.5408 15.376H69.5087C69.2421 16.1867 68.7568 16.8533 68.0528 17.376C67.3594 17.888 66.4954 18.144 65.4608 18.144C64.6181 18.144 63.8608 17.9573 63.1888 17.584C62.5274 17.2 62.0048 16.6667 61.6208 15.984C61.2474 15.2907 61.0608 14.4907 61.0608 13.584C61.0608 12.6773 61.2421 11.8827 61.6048 11.2C61.9781 10.5067 62.4954 9.97333 63.1568 9.6C63.8288 9.22667 64.5968 9.04 65.4608 9.04C66.2928 9.04 67.0341 9.22133 67.6848 9.584C68.3354 9.94667 68.8421 10.4587 69.2048 11.12C69.5674 11.7707 69.7488 12.5227 69.7488 13.376ZM67.8448 12.8C67.8341 12.128 67.5941 11.5893 67.1248 11.184C66.6554 10.7787 66.0741 10.576 65.3808 10.576C64.7514 10.576 64.2128 10.7787 63.7648 11.184C63.3168 11.5787 63.0501 12.1173 62.9648 12.8H67.8448Z" fill="#33A8FF"/>
<line x1="44" y1="7.25" x2="70" y2="7.25" stroke="#FFADE4" stroke-width="1.5"/>
<line x1="22" y1="7.25" x2="30" y2="7.25" stroke="#FFADE4" stroke-width="1.5"/>
<line x1="1" y1="7.25" x2="16" y2="7.25" stroke="#FFADE4" stroke-width="1.5"/>
</svg>
